<svg xmlns="http://www.w3.org/2000/svg" width="100" height="93" viewBox="56.5 -67.2 127 118.4"><path d="M130.1-47.7c-2 0-3.5 1.6-3.5 3.5 0 2 1.6 3.5 3.5 3.5 2 0 3.5-1.6 3.5-3.5 0-2-1.5-3.5-3.5-3.5zm0 5.6c-1.1 0-2.1-.9-2.1-2.1 0-1.1.9-2.1 2.1-2.1 1.1 0 2.1.9 2.1 2.1 0 1.1-1 2.1-2.1 2.1zM162.6-47.7c-2 0-3.5 1.6-3.5 3.5 0 2 1.6 3.5 3.5 3.5 2 0 3.5-1.6 3.5-3.5 0-2-1.6-3.5-3.5-3.5zm0 5.6c-1.1 0-2.1-.9-2.1-2.1 0-1.1.9-2.1 2.1-2.1 1.1 0 2.1.9 2.1 2.1 0 1.1-1 2.1-2.1 2.1z"/><path fill="#22A9D3" d="M115-26.5h62.7c.4 0 .7-.3.7-.7v-33.9c0-.4-.3-.7-.7-.7H115c-.4 0-.7.3-.7.7v33.9c0 .3.3.7.7.7zm.8-33.9H177V-28h-61.2v-32.4z"/><path fill="#22A9D3" d="M170.6-52.2c-1.3 0-2.5-1-2.6-2.3v-.3c0-.4-.3-.7-.7-.7h-41.8c-.4 0-.7.3-.7.7 0 1.4-1.2 2.6-2.6 2.6-.4 0-.7.3-.7.7V-37c0 .4.3.7.7.7 1.4 0 2.6 1.2 2.6 2.6 0 .4.3.7.7.7h41.7c.4 0 .7-.3.7-.7 0-1.4 1.2-2.6 2.6-2.6.4 0 .7-.3.7-.7v-14.5c.1-.4-.2-.7-.6-.7zm-.8 14.6c-1.7.3-3 1.6-3.3 3.3h-40.3c-.3-1.7-1.6-3-3.3-3.3v-13.2c1.7-.3 3-1.6 3.3-3.3h40.4c.3 1.7 1.6 3 3.3 3.3l-.1 13.2z"/><path d="M73.1 27.7h2c.4 0 .7-.3.7-.7 0-.4-.3-.7-.7-.7h-2c-.4 0-.7.3-.7.7-.1.3.2.7.7.7zM77.9 27.7h.5c.4 0 .7-.3.7-.7 0-.4-.3-.7-.7-.7h-.5c-.4 0-.7.3-.7.7 0 .3.3.7.7.7zM82.3 27.7h7.2c.4 0 .7-.3.7-.7 0-.4-.3-.7-.7-.7H82.3c-.4 0-.7.3-.7.7-.1.3.3.7.7.7zM92.4 27.7h.5c.4 0 .7-.3.7-.7 0-.4-.3-.7-.7-.7h-.5c-.4 0-.7.3-.7.7 0 .3.3.7.7.7zM96.8 27.7h7.2c.4 0 .7-.3.7-.7 0-.4-.3-.7-.7-.7H96.8c-.4 0-.7.3-.7.7 0 .3.3.7.7.7zM125.9 27.7H131.2c.4 0 .7-.3.7-.7 0-.4-.3-.7-.7-.7H125.9c-.4 0-.7.3-.7.7-.1.3.3.7.7.7zM107 27.7h.5c.4 0 .7-.3.7-.7 0-.4-.3-.7-.7-.7h-.5c-.4 0-.7.3-.7.7-.1.3.3.7.7.7zM111.3 27.7h7.2c.4 0 .7-.3.7-.7 0-.4-.3-.7-.7-.7H111.3c-.4 0-.7.3-.7.7 0 .3.3.7.7.7zM121.5 27.7h.5c.4 0 .7-.3.7-.7 0-.4-.3-.7-.7-.7h-.5c-.4 0-.7.3-.7.7 0 .3.3.7.7.7zM73.1 2.5c-.4 0-.7.3-.7.7V16c0 .4.3.7.7.7h9.7c.4 0 .7-.3.7-.7V3.2c0-.4-.3-.7-.7-.7h-9.7zM82 15.2h-8.2V3.9H82v11.3zM116.5 6.8c0-.4-.3-.7-.7-.7H88.5c-.4 0-.7.3-.7.7 0 .4.3.7.7.7h27.3c.4 0 .7-.3.7-.7zM88.5 10.9c-.4 0-.7.3-.7.7 0 .4.3.7.7.7h18.6c.4 0 .7-.3.7-.7 0-.4-.3-.7-.7-.7H88.5z"/><path d="M134.4-3h-5.8l5.4-5.4c.1-.1.2-.3.2-.5s-.1-.4-.2-.5l-4-4c-.3-.3-.8-.3-1 0L117.6-2l-1-1c-.2-.2-.5-.3-.8-.2-.3.1-.5.4-.5.7v7c0 .4.3.7.7.7h7c.3 0 .6-.2.7-.5s.1-.6-.2-.8l-1-1 4.5-4.5h7.3c1 0 1.7.8 1.7 1.7v22H68V.1c0-1 .8-1.7 1.7-1.7h39.6l.3.3c.1.1.3.2.5.2s.4-.1.5-.2L122-12.7l1 1c.2.2.5.3.8.2s.5-.4.5-.7v-7c0-.2-.1-.4-.2-.5s-.3-.2-.5-.2h-7c-.3 0-.6.2-.7.5-.1.3-.1.6.2.8l1 1-11.3 11.4c-.3.3-.3.8 0 1L108-3H69.9c-1.8 0-3.2 1.4-3.2 3.2v36c0 1.8 1.4 3.2 3.2 3.2h64.5c1.8 0 3.2-1.4 3.2-3.2V.2c0-1.7-1.4-3.2-3.2-3.2zM121 3.5l.3.3h-4.5V-.7l.2.2c.1.1.3.2.5.2s.4-.1.5-.2l11.4-11.4 2.9 2.9-11.2 11.5c-.3.2-.3.7-.1 1zM118.8-17c.3-.3.3-.8 0-1l-.3-.3h4.5v4.5l-.2-.2c-.1-.1-.3-.2-.5-.2s-.4.1-.5.2L110.3-2.7l-2.9-2.9L118.8-17zm17.4 40.7v6.5h-68v-6.5h68zM134.4 38H69.9c-1 0-1.7-.8-1.7-1.7v-4.5h68v4.5c0 .9-.8 1.7-1.8 1.7zM94.8-22c.4 0 .7-.3.7-.7v-10.9c0-.4-.3-.7-.7-.7s-.7.3-.7.7v10.9c0 .4.3.7.7.7zM94.8-14.9c.4 0 .7-.3.7-.7v-3.5c0-.4-.3-.7-.7-.7s-.7.3-.7.7v3.5c0 .4.3.7.7.7zM171.3-.6c0-.4-.3-.7-.7-.7-.4 0-.7.3-.7.7v10.9c0 .4.3.7.7.7s.7-.3.7-.7V-.6zM171.3 17.3v-3.5c0-.4-.3-.7-.7-.7-.4 0-.7.3-.7.7v3.5c0 .4.3.7.7.7.4.1.7-.3.7-.7zM98.7-64.5c.1.1.3.2.5.2s.4-.1.5-.2c.3-.3.3-.8 0-1L98.3-67c-.3-.3-.8-.3-1 0-.2.3-.3.8 0 1l1.4 1.5zM103.5-59.7c.1.1.3.2.5.2s.4-.1.5-.2c.3-.3.3-.8 0-1l-1.5-1.5c-.3-.3-.8-.3-1 0-.2.3-.3.8 0 1l1.5 1.5zM97.8-59.5c.2 0 .4-.1.5-.2l1.5-1.5c.3-.3.3-.8 0-1-.3-.3-.8-.3-1 0l-1.5 1.5c-.3.3-.3.8 0 1 .1.1.3.2.5.2zM102.5-64.3c.2 0 .4-.1.5-.2l1.5-1.5c.3-.3.3-.8 0-1-.3-.3-.8-.3-1 0l-1.5 1.5c-.3.3-.3.8 0 1 .2.2.4.2.5.2zM150.4-7.8c-.3-.3-.8-.3-1 0-.3.3-.3.8 0 1l1.5 1.5c.1.1.3.2.5.2s.4-.1.5-.2c.3-.3.3-.8 0-1l-1.5-1.5zM155.1-3.1c-.3-.3-.8-.3-1 0-.3.3-.3.8 0 1l1.5 1.5c.1.1.3.2.5.2s.4-.1.5-.2c.3-.3.3-.8 0-1l-1.5-1.5zM150.8-3.1l-1.5 1.5c-.3.3-.3.8 0 1 .1.1.3.2.5.2s.4-.1.5-.2l1.5-1.5c.3-.3.3-.8 0-1s-.7-.3-1 0zM155.6-7.8l-1.5 1.5c-.3.3-.3.8 0 1 .1.1.3.2.5.2s.4-.1.5-.2l1.5-1.5c.3-.3.3-.8 0-1-.3-.3-.7-.3-1 0zM57.8 42.6c-.3-.3-.8-.3-1 0-.3.3-.3.8 0 1l1.5 1.5c.1.1.3.2.5.2s.4-.1.5-.2c.3-.3.3-.8 0-1l-1.5-1.5zM62.5 47.4c-.3-.3-.8-.3-1 0-.3.3-.3.8 0 1l1.5 1.5c.1.1.3.2.5.2s.4-.1.5-.2c.3-.3.3-.8 0-1l-1.5-1.5zM58.2 47.4l-1.5 1.5c-.3.3-.3.8 0 1 .1.1.3.2.5.2s.4-.1.5-.2l1.5-1.5c.3-.3.3-.8 0-1-.3-.3-.7-.3-1 0zM63 42.6l-1.5 1.5c-.3.3-.3.8 0 1 .1.1.3.2.5.2s.4-.1.5-.2l1.5-1.5c.3-.3.3-.8 0-1-.3-.3-.8-.3-1 0zM70.1-24.5c0-1.9-1.6-3.5-3.5-3.5-2 0-3.6 1.6-3.6 3.5s1.6 3.5 3.6 3.5c1.9 0 3.5-1.6 3.5-3.5zm-3.5 2c-1.1 0-2-.9-2-2s.9-2 2-2 2 .9 2 2-.9 2-2 2zM127.3 44.2c-1.9 0-3.5 1.6-3.5 3.5s1.6 3.5 3.5 3.5 3.5-1.6 3.5-3.5-1.6-3.5-3.5-3.5zm0 5.5c-1.1 0-2-.9-2-2s.9-2 2-2 2 .9 2 2-.9 2-2 2zM68-53.4h12.9c.4 0 .7-.3.7-.7s-.3-.7-.7-.7H68c-.4 0-.7.3-.7.7 0 .3.3.7.7.7zM59.6-53.4h4.2c.4 0 .7-.3.7-.7s-.3-.7-.7-.7h-4.2c-.4 0-.7.3-.7.7 0 .3.3.7.7.7zM69.3-49.7c0-.4-.3-.7-.7-.7h-9c-.4 0-.7.3-.7.7s.3.7.7.7h9c.4 0 .7-.3.7-.7zM72.5-50.5c-.4 0-.7.3-.7.7s.3.7.7.7h2.9c.4 0 .7-.3.7-.7 0-.4-.3-.7-.7-.7h-2.9zM174.3 42.4h-12.9c-.4 0-.7.3-.7.7 0 .4.3.7.7.7h12.9c.4 0 .7-.3.7-.7.1-.4-.2-.7-.7-.7zM182.8 42.4h-4.2c-.4 0-.7.3-.7.7 0 .4.3.7.7.7h4.2c.4 0 .7-.3.7-.7 0-.4-.3-.7-.7-.7zM173 38.7c0 .4.3.7.7.7h9c.4 0 .7-.3.7-.7 0-.4-.3-.7-.7-.7h-9c-.3 0-.7.3-.7.7zM169.9 38H167c-.4 0-.7.3-.7.7 0 .4.3.7.7.7h2.9c.4 0 .7-.3.7-.7s-.3-.7-.7-.7zM147-43.1c1.7 0 3-1.4 3-3s-1.4-3-3-3h-3.1v4.8h-1.1v1.3h1.1v1h-1.1v1.3h1.1v1.6h1.3v-1.6h2.8V-42h-2.8v-1h1.8zm-1.8-4.8h1.2c1.6 0 2.4.8 2.4 1.8s-.8 1.8-1.8 1.8h-1.8v-3.6z"/></svg>