<svg xmlns="http://www.w3.org/2000/svg" width="100" height="96" viewBox="-429 233.8 99.7 95.2"><path fill="#EEF9FC" d="M-329.4 281.9l-37.7 47.1-60.9-18v-58.2l60.9-18 37.7 47.1z"/><path fill="#333" d="M-398.5 249.3h5.1c.3 0 .6-.3.6-.6s-.3-.6-.6-.6h-5.1c-.3 0-.6.3-.6.6s.2.5.6.6zm10 63.1h-15c-.3 0-.6.3-.6.6s.3.6.6.6h14.9c.3 0 .6-.3.6-.6.1-.3-.1-.6-.5-.6zm-35.2-47c.3 0 .6-.3.6-.6v-10.2c0-.3-.3-.6-.6-.6s-.6.2-.6.5V264.8c.1.3.3.6.6.6zm0 6.6c.3 0 .6-.3.6-.6v-3.3c0-.3-.3-.6-.6-.6s-.6.2-.6.5v3.4c0 .3.3.6.6.6zm93.8 27.4c-.3 0-.6.3-.6.6v10.2c0 .3.3.6.6.6s.6-.3.6-.6V300c0-.3-.3-.6-.6-.6zm0 13.6c-.3 0-.6.3-.6.6v3.3c0 .3.3.6.6.6s.6-.3.6-.6v-3.4c0-.3-.3-.5-.6-.5zm-78.2-76.8c.2.2.6.2.8 0 .2-.2.2-.6 0-.9l-1.3-1.3c-.2-.2-.6-.2-.9 0s-.2.6 0 .9l1.4 1.3zm4.2 4.2c.1.1.2.2.4.2.1 0 .3-.1.4-.2.2-.2.2-.6 0-.8l-1.3-1.3c-.2-.2-.6-.2-.9 0-.2.2-.2.6 0 .9l1.4 1.2zm-5.1.2c.1 0 .3-.1.4-.2l1.3-1.3c.2-.2.2-.6 0-.9s-.6-.2-.9 0l-1.3 1.3c-.2.2-.2.6 0 .9.2.1.4.1.5.2zm4.3-4.3c.1 0 .3-.1.4-.2l1.3-1.3c.2-.2.2-.6 0-.9s-.6-.2-.9 0l-1.3 1.3c-.2.2-.2.6 0 .9.1.1.3.2.5.2zm40.1 73c-.2-.2-.6-.2-.9 0-.2.2-.2.6 0 .9l1.3 1.3c.1.1.2.2.4.2.1 0 .3-.1.4-.2.2-.2.2-.6 0-.8l-1.2-1.4zm4.2 4.2c-.2-.2-.6-.2-.9 0s-.2.6 0 .9l1.3 1.3c.2.2.6.2.8 0 .2-.2.2-.6 0-.8l-1.2-1.4zm-3.8 0l-1.3 1.3c-.2.2-.2.6 0 .8.1.1.2.2.4.2.1 0 .3-.1.4-.2l1.3-1.3c.2-.2.2-.6 0-.9-.2-.1-.5-.1-.8.1zm4.3-4.2l-1.3 1.3c-.2.2-.2.6 0 .9.2.2.6.2.8 0l1.3-1.3c.2-.2.2-.6 0-.9-.2-.2-.6-.2-.8 0zm-68.1 5.3c-.2-.2-.6-.2-.9 0-.2.2-.2.6 0 .9l1.3 1.3c.2.2.6.2.8 0 .2-.2.2-.6 0-.9l-1.2-1.3zm4.3 4.1c-.2-.2-.6-.2-.9 0-.2.2-.2.6 0 .9l1.3 1.3c.2.2.6.2.8 0 .2-.2.2-.6 0-.9l-1.2-1.3zm-3.8 0l-1.3 1.3c-.2.2-.2.6 0 .8.2.2.6.2.8 0l1.3-1.3c.2-.2.2-.6 0-.9-.3 0-.6 0-.8.1zm4.2-4.1l-1.3 1.3c-.2.2-.2.6 0 .8.1.1.2.2.4.2.1 0 .3-.1.4-.2l1.3-1.3c.2-.2.2-.6 0-.9-.2-.2-.5-.2-.8.1.1-.1 0-.1 0 0zm61.4-61.7c1.6 0 3-1.3 3-3 0-1.6-1.3-3-3-3-1.6 0-3 1.3-3 3 0 1.6 1.4 3 3 3zm0-4.7c1 0 1.8.8 1.8 1.8s-.8 1.8-1.8 1.8-1.8-.8-1.8-1.8.8-1.8 1.8-1.8zm20.2 71c-1.6 0-3 1.3-3 3s1.3 3 3 3 3-1.3 3-3-1.4-3-3-3zm0 4.7c-1 0-1.8-.8-1.8-1.8s.8-1.8 1.8-1.8 1.8.8 1.8 1.8-.8 1.8-1.8 1.8zm-12.9-84.2h11.1c.3 0 .6-.3.6-.6s-.3-.6-.6-.6h-11.1c-.3 0-.6.3-.6.6s.3.6.6.6zm14.7 0h3.6c.3 0 .6-.3.6-.6s-.3-.6-.6-.6h-3.6c-.3 0-.6.3-.6.6-.1.3.2.6.6.6-.1 0 0 0 0 0zm3.5 2.6h-7.7c-.3 0-.6.3-.6.6s.3.6.6.6h7.7c.3 0 .6-.3.6-.6s-.2-.6-.6-.6zm-13.5 0c-.3 0-.6.3-.6.6s.3.6.6.6h2.5c.3 0 .6-.3.6-.6s-.3-.6-.6-.6h-2.5zm-43.5 85.5h-11.1c-.3 0-.6.3-.6.6s.3.6.6.6h11.1c.3 0 .6-.3.6-.6 0-.4-.3-.6-.6-.6zm-14.7 0h-3.6c-.3 0-.6.3-.6.6s.3.6.6.6h3.6c.4 0 .6-.3.6-.6 0-.4-.3-.7-.6-.6zm-3.6-2.7h7.7c.3 0 .6-.3.6-.6s-.3-.6-.6-.6h-7.7c-.3 0-.6.3-.6.6s.2.6.6.6zm13.5 0c.3 0 .6-.3.6-.6s-.3-.6-.6-.6h-2.5c-.3 0-.6.3-.6.6s.3.6.6.6h2.5zm16.2-33.5h-1.6c-.3 0-.6.3-.6.6s.3.6.6.6h1.6c.3 0 .6-.3.6-.6s-.3-.6-.6-.6zm2.7 1.2c.3 0 .6-.3.6-.6s-.3-.6-.6-.6h-.4c-.3 0-.6.3-.6.6s.3.6.6.6h.4zm3 0h5.6c.3 0 .6-.3.6-.6s-.3-.6-.6-.6h-5.5c-.3 0-.6.3-.6.6-.1.3.1.6.5.6-.1 0-.1 0 0 0zm30.6 0h.4c.3 0 .6-.3.6-.6s-.3-.6-.6-.6h-.4c-.3 0-.6.3-.6.6s.2.6.6.6zm3.4 0h4.2c.3 0 .6-.3.6-.6s-.3-.6-.6-.6h-4.2c-.3 0-.6.3-.6.6s.2.6.6.6zm-11.3 0h5.6c.3 0 .6-.3.6-.6s-.3-.6-.6-.6h-5.6c-.3 0-.6.3-.6.6s.2.6.6.6zm-14.8 0h.4c.3 0 .6-.3.6-.6s-.3-.6-.6-.6h-.4c-.3 0-.6.3-.6.6s.3.6.6.6zm3.4 0h5.6c.3 0 .6-.3.6-.6s-.3-.6-.6-.6h-5.6c-.3 0-.6.3-.6.6s.3.6.6.6zm7.9 0h.4c.3 0 .6-.3.6-.6s-.3-.6-.6-.6h-.4c-.3 0-.6.3-.6.6s.3.6.6.6zm-26.5-19.8c-.3 0-.6.3-.6.6v10c0 .3.3.6.6.6h7.5c.3 0 .6-.3.6-.6v-10c0-.3-.3-.6-.6-.6h-7.5zm7 10h-6.4v-8.8h6.4v8.8zm27-6.6c0-.3-.3-.6-.6-.6h-21.3c-.3 0-.6.3-.6.6s.3.6.6.6h21.3c.4.1.6-.2.6-.6zm-21.9 3.2c-.3 0-.6.3-.6.6s.3.6.6.6h14.5c.3 0 .6-.3.6-.6s-.3-.6-.6-.6h-14.5zm35.8-10.8h-4.6l4.2-4.2c.2-.2.2-.6 0-.9l-3.1-3.1c-.1-.1-.3-.2-.4-.2-.1 0-.3.1-.4.2l-8.9 8.9-.8-.8c-.2-.2-.4-.2-.6-.2-.2.1-.4.3-.4.6v5.5c0 .3.3.6.6.6h5.4c.2 0 .5-.2.6-.4.1-.2 0-.5-.2-.6l-.8-.8 3.4-3.4h5.7c.7 0 1.3.6 1.3 1.3v17.1h-53v-17.2c0-.7.6-1.3 1.3-1.3h30.9l.2.2c.2.2.6.2.8 0l8.9-8.9.8.8c.2.2.4.2.6.2.2-.1.4-.3.4-.6v-5.5c0-.1-.1-.3-.2-.4-.1-.1-.2-.2-.4-.2h-5.4c-.2 0-.5.2-.6.4-.1.2 0 .5.2.6l.8.8-8.9 8.8c-.2.2-.2.6 0 .9l1.7 1.7h-16.8v-20.9c0-2.4-1.9-4.3-4.3-4.3h-37.1c-2.4 0-4.3 1.9-4.3 4.3V314c0 2.4 1.9 4.3 4.3 4.3h37.1c2.4 0 4.3-1.9 4.3-4.3v-12h37.4c1.4 0 2.5-1.1 2.5-2.4v-28.3c.3-1.4-.8-2.5-2.2-2.5zm-10.4 5.1l.2.2h-3.4v-3.4l.2.2c.1.1.2.1.4.2.1 0 .3-.1.4-.2l8.9-8.9 2.3 2.3-8.9 8.9c-.3.1-.3.5-.1.7zm-1.7-16c.2-.2.2-.6 0-.9l-.2-.2h3.4v3.4l-.2-.2c-.1-.1-.2-.2-.4-.2-.1 0-.3.1-.4.2l-9 8.8-2.3-2.3 9.1-8.6zm-66.8-13.1h37.1c1.7 0 3.1 1.4 3.1 3.1v4.9h-43.4v-4.9c.1-1.7 1.5-3.1 3.2-3.1zm37.2 72.3h-37.1c-1.7 0-3.1-1.4-3.1-3.1v-4.9h43.4v4.9c-.1 1.7-1.5 3.1-3.2 3.1zm3.1-9.2h-43.4v-53.8h43.4v14.8h-11.8c-1.4 0-2.5 1.1-2.5 2.4V299.5c0 1.4 1.1 2.5 2.4 2.5h11.9v5.9zm38.6-7.1h-50.4c-.7 0-1.3-.6-1.3-1.3v-9.8h53.1v5h-45.1c-.3 0-.6.3-.6.6s.3.6.6.6h45.1v3.4c0 .8-.6 1.5-1.4 1.5.1 0 .1 0 0 0z"/></svg>