<svg xmlns="http://www.w3.org/2000/svg" width="98" height="100" viewBox="-430 231.1 97.3 99.9"><path fill="#EEF9FC" d="M-429 267.9l62.1-35.9 35.9 62.1-62.1 35.9-35.9-62.1z"/><path fill="#333" d="M-339.7 271.8c0-1.4-1-2.5-2.4-2.6-.7 0-1.4.3-1.9.8l-11 11v-33.8c0-1.4-1.1-2.5-2.4-2.5h-17l1.3-5.2c.1-.2 0-.3-.1-.5-.1-.1-.3-.2-.5-.2h-6.6c.2-.5.3-1 .3-1.6.1-1.9-1.3-3.4-3.2-3.5-1.9-.1-3.4 1.3-3.5 3.2v.3c0 .5.1 1 .3 1.5h-6.6c-.2 0-.3.1-.5.2-.1.1-.1.3-.1.5l1.3 5.2h-16.4c-1.4 0-2.5 1.1-2.5 2.5v71.1c0 1.4 1.1 2.5 2.4 2.5h51c1.4 0 2.5-1.1 2.5-2.4v-30l14.6-14.6c.8-.6 1.1-1.2 1-1.9zm-43.5-37c1.3.1 2.3 1.1 2.3 2.4 0 .5-.2 1.1-.5 1.5h-3.5c-.4-.4-.6-1-.5-1.6-.1-1.2.9-2.2 2.2-2.3zm-8.9 5.1h17.9l-1.3 4.8h-15.4l-1.2-4.8zm-17.7 7.3c0-.8.6-1.4 1.4-1.4h50.9c.8 0 1.4.6 1.4 1.4v16.4h-53.7v-16.4zm53.7 71c0 .8-.6 1.4-1.4 1.4h-50.9c-.8 0-1.4-.6-1.4-1.4v-53.5h53.6v17.6l-16.2 16.3-8.8-8.8c-1-.9-2.6-.9-3.6 0-.5.5-.8 1.1-.8 1.8s.3 1.4.8 1.8l12 12c.2.2.6.2.8 0l15.8-15.9.1 28.7zm14.9-45.4l-14.7 14.7c-.1 0-.1.1-.2.2l-16.4 16.4-11.5-11.6c-.2-.3-.4-.6-.4-.9 0-.4.1-.7.4-.9.3-.2.6-.4.9-.4.4 0 .7.1.9.4l9.3 9.3c.2.2.5.2.7.1l.1-.1 28.8-29c.5-.5 1.4-.6 2 0 .2.3.4.6.4.9.1.2-.1.6-.3.9zm-6.1-21c.3 0 .5-.2.6-.5v-9.1c0-.3-.2-.5-.5-.6-.3 0-.5.2-.6.5v9.1c-.1.3.1.6.4.6 0 .1.1.1.1 0zm0 5.9c.3 0 .5-.2.6-.5v-2.9c0-.3-.2-.5-.5-.6-.3 0-.5.2-.6.5v2.9c0 .3.2.5.4.6.1.1.1.1.1 0zm-73.3 41.7c-.3 0-.5.2-.6.5v9.1c0 .3.2.5.5.6.3 0 .5-.2.6-.5v-9c.1-.4-.2-.6-.5-.7zm0 12.1c-.3 0-.5.2-.6.5v2.9c0 .3.2.5.5.6.3 0 .5-.2.6-.5v-3c.1-.3-.2-.5-.5-.5zm58.2-78.2c.2.2.6.2.8 0 .2-.2.2-.5 0-.8l-1.3-1.3c-.2-.2-.6-.2-.8 0s-.2.6 0 .8l1.3 1.3zm4 4c.2.2.6.2.8 0 .2-.2.2-.5 0-.7l-1.3-1.3c-.2-.2-.6-.2-.8 0s-.2.6 0 .8l1.3 1.2zm-4.8.1c.1 0 .3-.1.4-.2l1.3-1.3c.2-.2.2-.6 0-.8s-.6-.2-.8 0l-1.3 1.3c-.2.2-.2.5-.1.7l.1.1c.1.2.3.2.4.2zm3.9-4c.1 0 .3-.1.4-.2l1.3-1.3c.2-.2.2-.6 0-.8-.2-.2-.5-.2-.8 0l-1.3 1.3c-.2.2-.2.5-.1.7l.1.1c.1.2.3.3.4.2zm-53.6 91.4c-.2-.2-.6-.2-.8 0-.2.2-.2.5 0 .8l1.3 1.3c.2.2.6.2.8 0 .2-.2.2-.5.1-.7l-.1-.1-1.3-1.3zm3.9 4c-.2-.2-.6-.2-.8 0s-.2.6 0 .8l1.3 1.3c.2.2.6.2.8 0 .2-.2.2-.5.1-.7l-.1-.1-1.3-1.3zm-3.5 0l-1.3 1.3c-.2.2-.2.5 0 .7.2.2.6.2.8 0l1.3-1.3c.2-.2.2-.6 0-.8-.3-.1-.6-.1-.8.1zm3.9-4l-1.3 1.3c-.2.2-.2.5-.1.7l.1.1c.1.1.2.2.4.2.1 0 .3-.1.4-.2l1.3-1.3c.2-.2.2-.6 0-.8-.2-.2-.6-.2-.8 0zm64-27.4c.2.2.6.2.8 0 .2-.2.2-.5 0-.7l-1.3-1.3c-.2-.2-.6-.2-.8 0s-.2.6 0 .8l1.3 1.2zm2.8 2.8l1.3 1.3c.2.2.6.2.8 0 .2-.2.2-.5 0-.8l-1.3-1.3c-.2-.2-.5-.2-.7-.1l-.1.1c-.3.2-.3.5 0 .8-.1-.1-.1-.1 0 0zm-4 1.2c.2.2.6.2.8 0l1.3-1.3c.2-.2.2-.5 0-.8-.2-.2-.5-.2-.7-.1l-.1.1-1.3 1.3c-.2.3-.2.6 0 .8zm4.3-3.8c.1 0 .3-.1.4-.2l1.3-1.3c.2-.2.2-.6 0-.8s-.6-.2-.8 0l-1.3 1.3c-.2.2-.2.5-.1.7l.1.1c.2.1.3.1.4.2zm3.8-52.5c1.6 0 2.9-1.3 2.9-2.9s-1.3-2.9-2.9-2.9c-1.6 0-2.9 1.3-2.9 2.9 0 1.6 1.3 2.9 2.9 2.9zm0-4.7c1 0 1.7.8 1.7 1.7s-.8 1.7-1.7 1.7c-1 0-1.7-.8-1.7-1.7 0-.9.8-1.6 1.7-1.7zm-40.2 83.9c-1.6 0-2.9 1.3-2.9 2.9 0 1.6 1.3 2.9 2.9 2.9 1.6 0 2.9-1.3 2.9-2.9 0-1.6-1.3-2.9-2.9-2.9zm0 4.6c-1 0-1.7-.8-1.7-1.7s.8-1.7 1.7-1.7 1.7.8 1.7 1.7c0 1-.8 1.7-1.7 1.7zm-45.9-43.3c-1.6 0-2.9 1.3-2.9 2.9s1.3 2.9 2.9 2.9c1.6 0 2.9-1.3 2.9-2.9 0-1.6-1.3-2.9-2.9-2.9zm0 4.6c-1 0-1.7-.8-1.7-1.7s.8-1.7 1.7-1.7c1 0 1.7.8 1.7 1.7 0 1-.8 1.7-1.7 1.7zm12.1-55.7h-10.7c-.3 0-.5.2-.6.5 0 .3.2.5.5.6h10.7c.3 0 .5-.2.6-.5 0-.3-.2-.5-.4-.6h-.1zm-17.7 1.1h3.4c.3 0 .5-.2.6-.5 0-.3-.2-.5-.5-.6h-3.4c-.3 0-.5.2-.6.5 0 .3.2.5.4.6h.1zm8 3.1c0-.3-.2-.5-.5-.6h-7.5c-.3 0-.5.2-.6.5 0 .3.2.5.5.6h7.5c.3 0 .5-.2.6-.4v-.1zm5.1-.5h-2.4c-.3 0-.5.2-.6.5 0 .3.2.5.5.6h2.4c.3 0 .5-.2.6-.5.1-.3-.1-.5-.4-.5 0-.2-.1-.2-.1-.1zm76 88.4H-351c-.3 0-.5.2-.6.5 0 .3.2.5.5.6h10.8c.3 0 .5-.2.6-.5-.1-.4-.3-.6-.6-.6zm7 0h-3.4c-.3 0-.5.2-.6.5 0 .3.2.5.5.6h3.4c.3 0 .5-.2.6-.5.1-.4-.2-.6-.5-.6zm-8.1-3.1c0 .3.2.5.5.6h7.5c.3 0 .6-.3.6-.6s-.2-.6-.6-.6h-7.5c-.3 0-.5.2-.6.4l.1.2zm-5.6 0c0 .3.2.5.5.6h2.4c.3 0 .6-.3.6-.6s-.2-.6-.6-.6h-2.4c-.3 0-.5.2-.6.5l.1.1zm-41.1-80.7h9.8c.3 0 .5-.2.6-.5 0-.3-.2-.5-.4-.6h-9.9c-.3 0-.5.2-.6.5-.1.3.2.6.5.6zm-7.9 30.4h30.3c.3 0 .5-.2.5-.5s-.2-.5-.5-.5H-396c-.3 0-.5.2-.6.5 0 .3.2.5.4.6.2 0 .2 0 .2-.1zm-6.5-3.2c-1.5 0-2.7 1.2-2.7 2.7 0 1.5 1.2 2.7 2.7 2.7 1.5 0 2.7-1.2 2.7-2.7 0-1.5-1.2-2.7-2.7-2.7.1 0 0 0 0 0zm0 4.2c-.8 0-1.5-.7-1.5-1.5s.7-1.5 1.5-1.5 1.5.7 1.5 1.5-.7 1.5-1.5 1.5zm6.5 8.6h26.8c.3 0 .5-.2.6-.5 0-.3-.2-.5-.5-.6H-396c-.3 0-.5.2-.6.5.1.3.3.6.6.6zm-6.5-3.3c-1.5 0-2.7 1.2-2.7 2.7 0 1.5 1.2 2.7 2.7 2.7 1.5 0 2.7-1.2 2.7-2.7 0-1.4-1.2-2.6-2.7-2.7.1 0 0 0 0 0zm0 4.2c-.8 0-1.5-.7-1.5-1.5s.7-1.5 1.5-1.5 1.5.7 1.5 1.5-.7 1.5-1.5 1.5zm6.5 8.6h7.2c.3 0 .5-.2.6-.5 0-.3-.2-.5-.5-.6h-7.2c-.3 0-.5.2-.6.5 0 .3.2.5.4.6h.1zm-6.5-3.2c-1.5 0-2.7 1.2-2.7 2.7 0 1.5 1.2 2.7 2.7 2.7 1.5 0 2.7-1.2 2.7-2.7 0-1.5-1.2-2.7-2.7-2.7.1 0 0 0 0 0zm0 4.1c-.8 0-1.5-.7-1.5-1.5s.7-1.5 1.5-1.5 1.5.7 1.5 1.5c0 .9-.7 1.5-1.5 1.5zm6.5 8.6h11.5c.3 0 .5-.2.6-.5 0-.3-.2-.5-.5-.6H-396c-.3 0-.5.2-.6.5 0 .3.2.5.4.6h.2zm-6.5-3.2c-1.5 0-2.7 1.2-2.7 2.7 0 1.5 1.2 2.7 2.7 2.7 1.5 0 2.7-1.2 2.7-2.7 0-1.5-1.2-2.7-2.7-2.7.1 0 0 0 0 0zm0 4.1c-.8 0-1.5-.7-1.5-1.5s.7-1.5 1.5-1.5 1.5.7 1.5 1.5c0 .9-.7 1.5-1.5 1.5zm5.9 8.1c0 .3.2.5.5.6h30.3c.3 0 .5-.2.6-.5 0-.3-.2-.5-.5-.6H-396c-.3-.1-.6.2-.6.5zm-5.9-2.7c-1.5 0-2.7 1.2-2.7 2.7 0 1.5 1.2 2.7 2.7 2.7 1.5 0 2.7-1.2 2.7-2.7 0-1.5-1.2-2.7-2.7-2.7.1 0 0 0 0 0zm0 4.2c-.8 0-1.5-.7-1.5-1.5s.7-1.5 1.5-1.5 1.5.7 1.5 1.5-.7 1.4-1.5 1.5zm41.8-60.1h-19.7c-.3 0-.5.2-.6.5 0 .3.2.5.5.6h19.8c.3 0 .5-.2.5-.5.1-.4-.2-.6-.5-.6zm0 5h-26.9c-.3 0-.5.2-.6.5 0 .3.2.5.5.6h27c.3 0 .5-.2.5-.5.2-.4-.1-.6-.5-.6.1 0 .1 0 0 0zm-33.1-4h-3.9l-1.2-3.7c-.1-.2-.3-.4-.6-.4-.2 0-.5.2-.6.4l-1.2 3.7h-3.9c-.2 0-.5.2-.6.4-.1.2 0 .5.2.6l3.1 2.3-1.2 3.7c-.1.2 0 .5.2.6.2.2.5.2.7 0l3.1-2.3 3.1 2.3c.1.1.2.1.3.1.1 0 .2 0 .3-.1.2-.1.3-.4.2-.6l-1.2-3.7 3.1-2.3c.2-.1.3-.4.2-.6.4-.2.2-.4-.1-.4zm-3.8 2.7c-.2.1-.3.4-.2.6l.8 2.4-2-1.5c-.2-.2-.5-.2-.7 0l-2 1.5.8-2.4c.1-.2 0-.5-.2-.6l-2-1.5h2.5c.3 0 .5-.2.6-.4l.8-2.4.8 2.4c.1.2.3.4.6.4h2.5l-2.3 1.5z"/></svg>