<svg xmlns="http://www.w3.org/2000/svg" width="92" height="90" viewBox="56.5 -70.5 127.1 124.9"><path d="M63.8-37.3c.4 0 .7-.3.7-.7v-9.1c0-.4-.3-.7-.7-.7-.4 0-.7.3-.7.7v9.1c0 .4.3.7.7.7zM63.8-29.8c.4 0 .7-.3.7-.7v-3.2c0-.4-.3-.7-.7-.7-.4 0-.7.3-.7.7v3.2c0 .4.3.7.7.7zM134.7-54.8c1.9 0 3.5-1.6 3.5-3.5s-1.6-3.5-3.5-3.5-3.5 1.6-3.5 3.5 1.6 3.5 3.5 3.5zm0-5.5c1.1 0 2 .9 2 2s-.9 2-2 2-2-.9-2-2 .9-2 2-2zM75.8-64.4c0 .4.3.7.7.7h11.3c.4 0 .7-.3.7-.7 0-.4-.3-.7-.7-.7H76.6c-.5-.1-.8.3-.8.7zM69.2-63.7h3.6c.4 0 .7-.3.7-.7 0-.4-.3-.7-.7-.7h-3.6c-.4 0-.7.3-.7.7 0 .4.3.7.7.7zM69.2-67.6h7.9c.4 0 .7-.3.7-.7s-.3-.7-.7-.7h-7.9c-.4 0-.7.3-.7.7s.3.7.7.7zM80.4-67.6H83c.4 0 .7-.3.7-.7s-.3-.7-.7-.7h-2.5c-.4 0-.7.3-.7.7-.1.4.2.7.6.7zM174.8 44.4c0-.4-.3-.7-.7-.7h-11.3c-.4 0-.7.3-.7.7 0 .4.3.7.7.7h11.3c.4 0 .7-.3.7-.7zM181.4 43.6h-3.6c-.4 0-.7.3-.7.7 0 .4.3.7.7.7h3.6c.4 0 .7-.3.7-.7.1-.3-.3-.7-.7-.7zM181.4 47.5h-7.9c-.4 0-.7.3-.7.7 0 .4.3.7.7.7h7.9c.4 0 .7-.3.7-.7.1-.4-.3-.7-.7-.7zM170.2 47.5h-2.5c-.4 0-.7.3-.7.7 0 .4.3.7.7.7h2.5c.4 0 .7-.3.7-.7s-.3-.7-.7-.7zM110.6-67.5c.1.1.3.2.5.2s.4-.1.5-.2c.3-.3.3-.8 0-1l-1.5-1.5c-.3-.3-.8-.3-1 0-.3.3-.3.8 0 1l1.5 1.5zM115.4-62.7c.1.1.3.2.5.2s.4-.1.5-.2c.3-.3.3-.8 0-1l-1.5-1.5c-.3-.3-.8-.3-1 0-.3.3-.3.8 0 1l1.5 1.5zM109.6-62.5c.2 0 .4-.1.5-.2l1.5-1.5c.3-.3.3-.8 0-1-.3-.3-.8-.3-1 0l-1.5 1.5c-.3.3-.3.8 0 1 .1.2.3.2.5.2zM114.4-67.3c.2 0 .4-.1.5-.2l1.5-1.5c.3-.3.3-.8 0-1-.3-.3-.8-.3-1 0l-1.5 1.5c-.3.3-.3.8 0 1 .1.1.3.2.5.2zM140.3 15.9l-1.5-1.5c-.3-.3-.8-.3-1 0-.3.3-.3.8 0 1l1.5 1.5c.1.1.3.2.5.2s.4-.1.5-.2c.3-.3.3-.7 0-1zM143.6 19.2c-.3-.3-.8-.3-1 0-.3.3-.3.8 0 1l1.5 1.5c.1.1.3.2.5.2s.4-.1.5-.2c.3-.3.3-.8 0-1l-1.5-1.5zM139.3 19.2l-1.5 1.5c-.3.3-.3.8 0 1 .1.1.3.2.5.2s.4-.1.5-.2l1.5-1.5c.3-.3.3-.8 0-1s-.8-.3-1 0zM145.1 14.4c-.3-.3-.8-.3-1 0l-1.5 1.5c-.3.3-.3.8 0 1 .1.1.3.2.5.2s.4-.1.5-.2l1.5-1.5c.3-.2.3-.7 0-1zM65.4 15.1c.1.1.3.2.5.2s.4-.1.5-.2c.3-.3.3-.8 0-1l-1.5-1.5c-.3-.3-.8-.3-1 0-.3.3-.3.8 0 1l1.5 1.5zM68.7 18.4l1.5 1.5c.1.1.3.2.5.2s.4-.1.5-.2c.3-.3.3-.8 0-1l-1.5-1.5c-.3-.3-.8-.3-1 0-.3.2-.3.7 0 1zM63.9 19.9c.1.1.3.2.5.2s.4-.1.5-.2l1.5-1.5c.3-.3.3-.8 0-1-.3-.3-.8-.3-1 0l-1.5 1.5c-.3.2-.3.7 0 1zM69.2 15.3c.2 0 .4-.1.5-.2l1.5-1.5c.3-.3.3-.8 0-1-.3-.3-.8-.3-1 0L68.7 14c-.3.3-.3.8 0 1 .1.2.3.3.5.3z"/><path fill="#22A9D3" d="M152.9-66.3c3.1-2.2 6.8-3.1 10.5-2.5s7 2.6 9.2 5.7c4.5 6.3 3.1 15.1-3.2 19.6-.3.2-.4.7-.2 1 .1.2.4.3.6.3.1 0 .3 0 .4-.1 7-5 8.6-14.7 3.6-21.7-2.4-3.4-6-5.6-10.1-6.3-4.1-.7-8.2.3-11.6 2.7-.3.2-.4.7-.2 1 .2.5.7.5 1 .3z"/><path fill="#22A9D3" d="M167.1-45.8c.1 0 .3 0 .4-.1 2.4-1.7 4-4.2 4.4-7.1.5-2.9-.2-5.8-1.9-8.2s-4.2-4-7.1-4.4c-2.9-.5-5.8.2-8.2 1.9-.3.2-.4.7-.2 1s.7.4 1 .2c2.1-1.5 4.6-2.1 7.1-1.7s4.7 1.8 6.2 3.8c1.5 2.1 2.1 4.6 1.7 7.1-.4 2.5-1.8 4.7-3.8 6.2-.3.2-.4.7-.2 1 .2.2.4.3.6.3z"/><path fill="#22A9D3" d="M164-50.8c-.3.2-.4.7-.2 1 .1.2.4.3.6.3.1 0 .3 0 .4-.1 1.4-1 2.3-2.5 2.6-4.2.3-1.7-.1-3.4-1.1-4.8-2.1-2.9-6.1-3.5-9-1.5-.3.2-.4.7-.2 1 .2.3.7.4 1 .2 2.2-1.6 5.3-1.1 6.9 1.1.8 1.1 1.1 2.4.9 3.7-.1 1.3-.8 2.5-1.9 3.3zM160.7-16.1c2 2.9 5.1 4.9 8.5 5.7 1.1.3 2.2.4 3.3.4 2.1 0 4.3-.5 6.2-1.4l.6-.3.7-.4c.3-.2.6-.4.8-.5.8-.6 1.4-1.5 1.5-2.5.2-1-.1-2-.6-2.8l-5.2-7.4c-.6-.8-1.3-1.3-2.1-1.5-1.2-.2-2.6.2-4.1 1.3-.1.1-.2.1-.3.2-.3.1-.5.1-.8.1s-.5-.1-.8-.3l-.4-.4c-.2-.3-.4-.5-.5-.6L158.6-39c-.4-.5-.6-1.1-.6-1.6 0-.4.1-.9.3-1.2.1-.1.1-.2.2-.2l1-.7c1.7-1.2 2.1-3.6.9-5.3l-5.2-7.4c-.6-.8-1.5-1.4-2.5-1.5-1-.2-2 .1-2.8.6-.3.2-.5.4-.8.6l-.6.6-.5.4c-2.3 2.3-3.8 5.3-4.1 8.6-.4 3.5.5 7 2.6 9.9l14.2 20.1zm13.4-9.2c.5.1.9.4 1.2.9l5.2 7.4c.4.5.5 1.1.4 1.7-.1.6-.4 1.2-1 1.5-.3.2-.6.4-.8.5l-2.6-3.6-5.3-7.5c1.1-.8 2.1-1.1 2.9-.9zm-23.4-29.8c.5-.4 1.1-.5 1.7-.4.6.1 1.2.4 1.5.9l5.2 7.4c.7 1 .5 2.5-.6 3.2l-.8.6-2.5-3.6-5.3-7.5c.2-.2.5-.4.8-.6zm-5.4 9.1c.3-2.8 1.5-5.5 3.5-7.5l8 11.2c-.2.5-.4 1-.3 1.6 0 .9.3 1.7.9 2.5l8.8 12.5c.2.3.5.7.6.8.3.4.6.6.7.7.4.3.9.5 1.4.5.3 0 .6 0 .9-.1l3 4.2 4.9 7c-2.6 1.2-5.5 1.5-8.3.8-3.1-.7-5.8-2.5-7.6-5.1L147.6-37c-1.9-2.6-2.7-5.8-2.3-9z"/><path d="M139.1 39.2h-18.6c-.4 0-.7.3-.7.7 0 .4.3.7.7.7h18.6c.4 0 .7-.3.7-.7 0-.3-.3-.7-.7-.7z"/><path d="M150 40.9c-3-9.6-11.9-15.1-23.1-14.2l-1.6.1c-1.6.1-3 .2-4.7.3-.8-1.5-3.5-7.9-.1-17 .3-.3.5-.6.8-.8h15c.1 0 .2 0 .3-.1h.1c.1 0 .1-.1.1-.1l.1-.1s.1-.1.1-.2v-.1l1.7-4.6c1.8-.3 3.5-1 5-2 2.7-1.8 4.4-4.6 5-7.8.6-3.2-.1-6.4-2-9.1-1.7-2.5-4.2-4.2-7.1-4.9.2-1.3.3-2.6.3-4 0-19.4-15.9-35.3-35.4-35.3S69.2-43.1 69.2-23.6c0 1.4.1 2.7.3 4-2.9.7-5.4 2.4-7.1 4.9-1.8 2.7-2.5 5.9-2 9.1.6 3.2 2.4 6 5 7.8 2 1.4 4.4 2.2 6.9 2.2.7 0 1.5-.1 2.2-.2.4-.1.7-.5.6-.9l-4-22.2v-.1c-.2-1.4-.3-2.9-.3-4.5 0-18.7 15.2-33.9 33.9-33.9s33.9 15.2 33.9 33.9c0 1.5-.1 3-.3 4.4v.1L134 3.2c-.1.4.2.8.6.9.7.1 1.5.2 2.2.2h.3l-1.3 3.4h-13.3c2.1-2.8 3.8-6 5.1-9.7h.3c2.6 0 4.6-4 4.6-9.3 0-4.5-1.5-8.1-3.6-9v-.4c.4-3 .8-6 .9-9.1.9-13.6-2.9-14.8-9.2-16.7-.5-.2-1.1-.3-1.6-.5-5.4-1.7-11-2.1-14.7-2.1-5.3 0-10.4.8-14.7 2.1-.6.2-1.1.3-1.6.5-6.3 1.9-10 3.1-9.2 16.7.2 3 .6 6.1.9 9.1l.1.4c-2.1.9-3.6 4.6-3.6 9 0 5.3 2 9.3 4.6 9.3h.3c1.6 4.7 4 8.7 6.9 11.9 3.3 9 .6 15.6-.2 17.1-1.6-.1-3-.2-4.6-.3l-1.5-.1C70.8 25.8 62 31.2 59 40.9c-.8 2.4-1.5 4.8-2.3 7.2-.5 1.5-.2 3.1.8 4.3.9 1.3 2.4 2 3.9 2h86.2c1.6 0 3-.7 3.9-2 .9-1.3 1.2-2.8.8-4.3-.8-2.5-1.5-4.9-2.3-7.2zM66.2.9c-2.3-1.6-3.9-4-4.4-6.8-1-5.5 2.5-10.9 7.9-12.2l3.8 20.9c-2.7.2-5.2-.4-7.3-1.9zm69.4 1.8l3.8-20.9c5.4 1.4 8.9 6.7 7.9 12.2-.5 2.8-2.1 5.2-4.4 6.8-2.2 1.6-4.8 2.2-7.3 1.9zm-47-47.8c.5-.2 1.1-.3 1.6-.5 4.1-1.3 9.1-2 14.2-2.1 5.2 0 10.1.7 14.2 2.1.6.2 1.1.3 1.6.5 6 1.8 8.9 2.8 8.1 15.2-.1 1.8-.3 3.6-.5 5.3-.9-3.2-2.6-6.8-5.5-7.2-4.4-.5-16.4-.4-16.9-.4-.1 0-5.1.4-10.7-5-.2-.1-.4-.2-.6-.2s-.4.1-.5.3c-.8 1.1-1.7 3.5-.4 5.7-2.9-.5-7.5-1-9.3 1.1-1.2 1.4-2.3 4.2-3 6.5-.2-2-.5-4.1-.6-6.1-.6-12.4 2.4-13.4 8.3-15.2zM82.2-3.5c-.1 0-.2-.1-.3-.1s-.2 0-.3.1c-.2.1-.3.1-.5.1-1.5 0-3.2-3.2-3.2-7.8 0-4.1 1.3-7.1 2.7-7.7h.1c.3 0 .6-.2.7-.6 0-.1 1.7-7.4 3.8-9.8 1.4-1.6 6.9-.9 10-.1.3.1.7-.1.8-.4.2-.3.1-.7-.2-.9-2.2-1.7-1.8-3.7-1.3-4.8 5.8 5.2 11 4.8 11.1 4.8.1 0 12.3-.1 16.7.4 3.2.4 4.8 7.8 5.2 10.7.1.4.4.7.8.6 1.3.6 2.7 3.5 2.7 7.7 0 4.6-1.7 7.8-3.2 7.8-.2 0-.3 0-.5-.1s-.4-.1-.6 0-.3.3-.4.4C125 1 123 4.7 120.5 7.6h-10c-.2-1.1-1.2-1.8-2.3-1.8h-7.3c-1.3 0-2.4 1.1-2.4 2.4v.4c0 1.3 1.1 2.4 2.4 2.4h7.3c1.1 0 2.1-.8 2.3-1.8h8.9c-4.1 4.2-9.3 6.6-14.8 6.6-5.6 0-10.8-2.4-14.9-6.7V9c-.1-.2-.2-.3-.4-.4-2.9-3.1-5.1-7.1-6.6-11.7-.2-.2-.3-.4-.5-.4zM109 8.6c0 .5-.4.9-.9.9h-7.3c-.5 0-.9-.4-.9-.9v-.4c0-.5.4-.9.9-.9h7.3c.5 0 .9.4.9.9v.4zM90.5 12c4 3.4 8.8 5.3 14 5.3 5.1 0 9.8-1.9 13.8-5.2-2.5 9.2.7 15.1 1.2 15.9.1.2.2.3.3.4-2.3 3.7-4.9 7.1-7.7 10.1l-2.1-8.7 2.7-4.6c.1-.2.1-.5 0-.7s-.4-.4-.6-.4H96.9c-.3 0-.5.1-.6.4-.1.2-.1.5 0 .7l2.8 4.7-2.1 8.7c-2.4-2.6-5.2-6-7.8-10.3.1-.1.1-.2.2-.3.3-.6 3.6-6.8 1.1-16zm14 33.1c-.9-.6-3.4-2.3-6.5-5.4.1-.1.2-.2.2-.4l2.2-8.9h8.3l2.2 8.9c0 .1.1.2.2.3-3.2 3.2-5.7 4.9-6.6 5.5zm4.3-16.1h-8.7l-2-3.4h12.7l-2 3.4zm41.5 22.6c-.7.9-1.7 1.4-2.8 1.4H61.4c-1.1 0-2.1-.5-2.8-1.4s-.8-2-.5-3c.7-2.5 1.5-4.9 2.2-7.2 2.8-9 11.1-14 21.6-13.2l1.5.1c1.4.1 2.6.2 4 .2 7.7 13 16.3 18 16.7 18.2.1.1.2.1.4.1.1 0 .2 0 .3-.1.1-.1 3.1-1.8 7.2-5.9 3.5-3.5 6.7-7.6 9.5-12.3 1.4-.1 2.6-.2 3.9-.2l1.6-.1c10.5-.8 18.8 4.2 21.6 13.2.7 2.4 1.5 4.8 2.2 7.2.4 1 .2 2.1-.5 3z"/><path fill="#22A9D3" d="M166 13.6c-1.4.6-2.4 1.8-2.9 3.2-.5 1.4-.4 2.9.2 4.3.6 1.4 1.8 2.4 3.2 2.9.6.2 1.2.3 1.9.3.8 0 1.7-.2 2.4-.6 2.8-1.3 4-4.7 2.6-7.5-1.2-2.7-4.6-3.9-7.4-2.6zm6.4 6.5c-.4 1-1.1 1.9-2.1 2.4s-2.1.5-3.2.2c-1-.4-1.9-1.1-2.4-2.1s-.5-2.1-.2-3.2c.4-1 1.1-1.9 2.1-2.4.6-.3 1.2-.4 1.8-.4 1.6 0 3 .9 3.8 2.4.5.9.5 2 .2 3.1z"/><path fill="#22A9D3" d="M183 14.9c-.1-.2-.2-.4-.4-.5-.2-.1-.4-.1-.6 0l-.9.4c-.3.1-.6.1-.9 0s-.5-.3-.6-.6c-.2-.6 0-1.3.6-1.5l.9-.4c.2-.1.3-.2.4-.4.1-.2 0-.4-.1-.6-1.3-2.3-3.2-4.2-5.4-5.5-.2-.1-.4-.1-.6-.1-.2.1-.4.2-.4.4l-.4.9c-.3.6-.9.9-1.5.6-.6-.3-.9-.9-.6-1.5l.4-.9c.1-.2.1-.4 0-.6-.1-.2-.3-.3-.5-.4-2.5-.7-5.2-.7-7.7 0-.2.1-.4.2-.5.4-.1.2-.1.4 0 .6l.4.9c.1.3.1.6 0 .9-.1.3-.3.5-.6.6s-.6.1-.9 0-.5-.3-.6-.6l-.5-1c-.1-.2-.2-.3-.4-.4s-.4 0-.6.1c-2.3 1.3-4.2 3.2-5.5 5.4-.1.2-.1.4-.1.6.1.2.2.4.4.4l.9.4c.6.3.9.9.6 1.5s-.9.9-1.5.6l-.9-.4c-.2-.1-.4-.1-.6 0s-.3.3-.4.5c-.7 2.5-.7 5.2 0 7.7.1.2.2.4.4.5s.4.1.6 0l.9-.4c.6-.2 1.3 0 1.5.6.1.3.1.6 0 .9-.1.3-.3.5-.6.6l-.9.4c-.2.1-.3.2-.4.4-.1.2 0 .4.1.6 1.3 2.3 3.2 4.2 5.4 5.5.2.1.4.1.6.1.2-.1.4-.2.4-.4l.4-.9c.3-.6.9-.9 1.5-.6.6.3.9.9.6 1.5l-.4.9c-.1.2-.1.4 0 .6.1.2.3.3.5.4 1.3.4 2.6.5 4 .5 1.3 0 2.5-.2 3.8-.5.2-.1.4-.2.5-.4.1-.2.1-.4 0-.6l-.4-.9c-.2-.6 0-1.3.6-1.5.6-.2 1.3 0 1.5.6l.4.9c.1.2.2.3.4.4.2.1.4 0 .6-.1 2.3-1.3 4.2-3.2 5.5-5.4.1-.2.1-.4.1-.6-.1-.2-.2-.4-.4-.4l-.9-.4c-.6-.3-.9-.9-.6-1.5s.9-.9 1.5-.6l.9.4c.2.1.4.1.6 0s.3-.3.4-.5c.7-2.4.7-5.1 0-7.6zm-1.3 6.5c-1.4-.6-3 .1-3.6 1.4-.6 1.3.1 2.9 1.4 3.5h.1c-1 1.5-2.3 2.8-3.8 3.7v-.1c-.5-1.3-2.1-2-3.4-1.5s-2 2.1-1.4 3.4v.1c-1.8.3-3.6.3-5.3 0v-.1c.6-1.3-.1-2.9-1.4-3.5s-2.9.1-3.5 1.4v.1c-1.5-1-2.8-2.3-3.7-3.8h.1c.7-.3 1.2-.8 1.4-1.4.3-.6.3-1.4 0-2-.5-1.3-2.1-2-3.4-1.4h-.1c-.3-1.8-.3-3.6 0-5.3h.1c1.3.6 2.9-.1 3.5-1.4.6-1.3-.1-2.9-1.4-3.5h-.1c1-1.5 2.3-2.8 3.8-3.7v.1c.3.7.8 1.2 1.4 1.4.6.3 1.4.3 2 0 .7-.3 1.2-.8 1.4-1.4.3-.6.3-1.4 0-2v-.1c1.8-.3 3.6-.3 5.3 0v.1c-.6 1.3.1 2.9 1.4 3.5s2.9-.1 3.5-1.4v-.1c1.5 1 2.8 2.3 3.7 3.8h-.1c-1.3.5-2 2.1-1.4 3.4.3.7.8 1.2 1.4 1.4.6.3 1.4.3 2 0h.1c.4 1.9.4 3.7 0 5.4z"/></svg>