<svg xmlns="http://www.w3.org/2000/svg" width="95" height="94" viewBox="-415 201 128 127.5"><path d="M-324.6 238c.4 0 .8-.3.8-.7 0-.4-.3-.8-.7-.8l-10.2-.1c-.5 0-.8.3-.8.7 0 .4.3.8.7.8l10.2.1zM-336.3 243.5c-.1.4.2.8.6.9l6 1.3h.2c.3 0 .7-.2.7-.6.1-.4-.2-.8-.6-.9l-6-1.3c-.4-.1-.8.2-.9.6zM-335.4 231.7h.2l5.8-1.9c.4-.1.6-.6.5-.9-.1-.4-.6-.6-1-.5l-5.8 1.9c-.4.1-.6.6-.5.9.2.3.5.5.8.5zM-359.3 213.2c.4 0 .8-.3.8-.8v-10.1c0-.4-.3-.8-.8-.8-.4 0-.8.3-.8.8v10.2c0 .4.4.7.8.7zM-372.4 216.2c.1.2.4.4.6.4.1 0 .3 0 .4-.1.4-.2.5-.7.3-1l-5.2-8.8c-.2-.4-.7-.5-1-.3-.4.2-.5.7-.3 1l5.2 8.8zM-389.9 220.5l8.9 5c.1.1.2.1.4.1.3 0 .5-.1.7-.4.2-.4.1-.8-.3-1l-8.9-5c-.4-.2-.8-.1-1 .3-.3.3-.2.8.2 1zM-394.1 237.9l10.2-.1c.4 0 .8-.3.7-.8 0-.4-.3-.7-.8-.7l-10.2.1c-.4 0-.8.3-.7.8.1.4.4.7.8.7zM-338.6 225.3c.1.2.4.4.7.4.1 0 .3 0 .4-.1l8.9-5c.4-.2.5-.7.3-1-.2-.4-.7-.5-1-.3l-8.9 5c-.5.2-.6.6-.4 1zM-347.2 216.5c.1.1.3.1.4.1.3 0 .5-.1.6-.4l5.2-8.8c.2-.4.1-.8-.3-1-.4-.2-.8-.1-1 .3l-5.2 8.8c-.2.4 0 .8.3 1zM-365.8 213.3c.1.3.4.5.7.5h.2c.4-.1.6-.5.5-.9l-1.8-5.9c-.1-.4-.5-.6-.9-.5s-.6.5-.5.9l1.8 5.9zM-376.8 219.7c.1.1.3.2.5.2s.4-.1.6-.2c.3-.3.3-.8 0-1.1l-4.5-4.1c-.3-.3-.8-.3-1.1 0-.3.3-.3.8 0 1.1l4.5 4.1zM-382.8 229.3l-6-1.3c-.4-.1-.8.2-.9.6-.1.4.2.8.6.9l6 1.3h.2c.3 0 .7-.2.7-.6 0-.4-.2-.8-.6-.9zM-383.5 242.1l-5.8 1.9c-.4.1-.6.6-.5.9.1.3.4.5.7.5h.2l5.9-1.9c.4-.1.6-.5.5-.9-.2-.4-.6-.6-1-.5zM-342.2 220.3c.1.1.3.2.5.2s.4-.1.6-.3l4.1-4.6c.3-.3.3-.8-.1-1.1-.3-.3-.8-.3-1.1.1l-4.1 4.6c-.2.4-.2.8.1 1.1zM-352.8 214h.2c.3 0 .7-.2.7-.6l1.3-6c.1-.4-.2-.8-.6-.9-.4-.1-.8.2-.9.6l-1.3 6c-.1.4.2.8.6.9z"/><path fill="#21A9D2" d="M-363.8 247c.5-.1.8-.5.7-.9 0 0-.1-.8.2-1.3.2-.3.6-.5 1.1-.6.4-.1.7-.5.6-.9-.1-.4-.5-.7-.9-.6-.9.2-1.6.6-2.1 1.2-.7 1.1-.5 2.3-.5 2.5.3.4.6.6.9.6z"/><path fill="#21A9D2" d="M-362.4 250.7c.2.1.4.2.8.3h.5c.7 0 1.4-.3 1.9-.8.5.5 1.2.8 1.9.8.2 0 .3 0 .6-.1.2-.1.5-.2.7-.2 3.2-1.3 7-5 7-10.9 0-4.7-1.7-8.8-4.9-12.3l-.1-.1c-.4-.5-.9-.9-1.3-1.3-.2-.2-.3-.3-.6-.5-.4-.3-.9-.4-1.4-.4-.7 0-1.4.3-1.9.8-.5-.5-1.2-.8-1.9-.8-.5 0-1 .1-1.5.4-.2.1-.3.3-.5.4-.5.4-.9.9-1.3 1.3-3.3 3.5-4.9 7.7-4.9 12.3-.2 6.1 3.6 9.7 6.9 11.1zm6.2-16.8c-.5-.7-1.2-.9-1.6-1-.3 0-.5 0-.8.1v-5.1-.3c.1-.5.6-.9 1.1-.9.2 0 .4.1.6.1.1.1.3.2.4.3.5.4.9.8 1.3 1.3 0 .1.4.7-.7 2.6-.2.4-.1.8.3 1 .1.1.3.1.4.1.3 0 .5-.1.6-.4.4-.6.6-1.2.8-1.7 1.6 2.2 2.6 4.7 3 7.4-.5-.3-1.1-.5-1.8-.5-1.3-.1-2.6.4-3.8 1.5-.3.3-.3.8-.1 1.1.3.3.8.3 1.1.1.9-.8 1.8-1.2 2.7-1.2 1 .1 1.8.7 2.1 1v.3c0 5.1-3.3 8.3-6.1 9.5-.2.1-.3.1-.4.2h-.2c-.6 0-1-.4-1.1-.9v-13.9c.2-.1.4-.2.6-.2.1 0 .3 0 .5.4.1.2.4.3.6.3.2 0 .3 0 .4-.1.3-.3.4-.7.1-1.1zm-11.8 5.6c.3-.3 1-.9 2.1-1 .9-.1 1.8.3 2.7 1.2.3.3.8.3 1.1-.1.3-.3.3-.8-.1-1.1-1.2-1.1-2.5-1.6-3.8-1.5-.7 0-1.3.3-1.8.5.4-2.7 1.4-5.2 3-7.4.2.5.4 1 .8 1.7.1.2.4.4.6.4.1 0 .3 0 .4-.1.4-.2.5-.7.3-1-1.1-1.8-.7-2.5-.7-2.6.4-.4.8-.9 1.3-1.3.1-.1.3-.2.3-.3.2-.1.4-.2.6-.2.6 0 1 .4 1.1.9V233c-.2-.1-.5-.1-.8-.1-.4 0-1.1.2-1.6 1-.2.3-.2.8.2 1.1.1.1.3.1.4.1.2 0 .5-.1.6-.3.2-.3.4-.3.5-.4.2 0 .4.1.6.2v13.9c-.1.5-.6.9-1.1.9h-.1c-.2-.1-.3-.1-.5-.2-2.8-1.2-6.1-4.4-6.1-9.5v-.2z"/><path fill="#21A9D2" d="M-357.5 243.4c-.1.4.2.8.6.9.5.1.8.3 1.1.6.4.5.3 1.3.2 1.3-.1.4.2.8.6.9h.1c.4 0 .7-.2.7-.6 0-.1.2-1.4-.5-2.5-.5-.6-1.1-1.1-2.1-1.2-.3-.1-.6.1-.7.6z"/><path d="M-411.1 280c.4 0 .8-.3.8-.8v-13.4c0-.4-.3-.8-.8-.8-.4 0-.8.3-.8.8v13.5c.1.3.4.7.8.7zM-411.8 288c0 .4.3.8.8.8.4 0 .8-.3.8-.8v-4.4c0-.4-.3-.8-.8-.8-.4 0-.8.3-.8.8v4.4zM-297.2 296.6c-.4 0-.8.3-.8.8v13.5c0 .4.3.8.8.8.4 0 .8-.3.8-.8v-13.6c0-.4-.4-.7-.8-.7zM-297.2 314.4c-.4 0-.8.3-.8.8v4.4c0 .4.3.8.8.8.4 0 .8-.3.8-.8v-4.4c0-.4-.4-.8-.8-.8zM-301.8 277.7c-.3-.3-.8-.3-1.1 0-.3.3-.3.8 0 1.1l1.6 1.6c.1.1.3.2.5.2s.4-.1.5-.2c.3-.3.3-.8 0-1.1l-1.5-1.6zM-296.6 282.8c-.3-.3-.8-.3-1.1 0-.3.3-.3.8 0 1.1l1.6 1.6c.1.1.3.2.5.2s.4-.1.5-.2c.3-.3.3-.8 0-1.1l-1.5-1.6zM-301.2 282.8l-1.6 1.6c-.3.3-.3.8 0 1.1.1.1.3.2.5.2s.4-.1.5-.2l1.6-1.6c.3-.3.3-.8 0-1.1-.3-.3-.8-.3-1 0zM-296.1 277.7l-1.6 1.6c-.3.3-.3.8 0 1.1.1.1.3.2.5.2s.4-.1.5-.2l1.6-1.6c.3-.3.3-.8 0-1.1-.3-.3-.7-.3-1 0zM-410.5 318.9c-.3-.3-.8-.3-1.1 0-.3.3-.3.8 0 1.1l1.6 1.6c.1.1.3.2.5.2s.4-.1.5-.2c.3-.3.3-.8 0-1.1l-1.5-1.6zM-405.3 324c-.3-.3-.8-.3-1.1 0-.3.3-.3.8 0 1.1l1.6 1.6c.1.1.3.2.5.2s.4-.1.5-.2c.3-.3.3-.8 0-1.1l-1.5-1.6zM-410 324l-1.6 1.6c-.3.3-.3.8 0 1.1.1.1.3.2.5.2s.4-.1.5-.2l1.6-1.6c.3-.3.3-.8 0-1.1-.2-.3-.7-.3-1 0zM-404.8 318.9l-1.6 1.6c-.3.3-.3.8 0 1.1.1.1.3.2.5.2s.4-.1.5-.2l1.6-1.6c.3-.3.3-.8 0-1.1-.3-.3-.7-.3-1 0zM-291.4 242.3c-2.2 0-3.9 1.8-3.9 3.9 0 2.2 1.8 3.9 3.9 3.9 2.2 0 3.9-1.8 3.9-3.9 0-2.1-1.8-3.9-3.9-3.9zm0 6.4c-1.3 0-2.4-1.1-2.4-2.4s1.1-2.4 2.4-2.4c1.3 0 2.4 1.1 2.4 2.4s-1.1 2.4-2.4 2.4zM-404.3 296.7c-2.2 0-3.9 1.8-3.9 3.9 0 2.2 1.8 3.9 3.9 3.9 2.2 0 3.9-1.8 3.9-3.9 0-2.2-1.7-3.9-3.9-3.9zm0 6.3c-1.3 0-2.4-1.1-2.4-2.4 0-1.3 1.1-2.4 2.4-2.4 1.3 0 2.4 1.1 2.4 2.4 0 1.3-1.1 2.4-2.4 2.4zM-319.4 209.6c0 .4.3.8.8.8h14.6c.4 0 .8-.3.8-.8 0-.4-.3-.8-.8-.8h-14.7c-.4 0-.7.4-.7.8zM-328.1 210.3h4.7c.4 0 .8-.3.8-.8 0-.4-.3-.8-.8-.8h-4.7c-.4 0-.8.3-.8.8s.3.8.8.8zM-328.1 205.3h10.1c.4 0 .8-.3.8-.8 0-.4-.3-.8-.8-.8h-10.1c-.4 0-.8.3-.8.8s.3.8.8.8zM-313.6 205.3h3.3c.4 0 .8-.3.8-.8 0-.4-.3-.8-.8-.8h-3.3c-.4 0-.8.3-.8.8s.4.8.8.8zM-377.7 319.4c0 .4.3.8.8.8h14.6c.4 0 .8-.3.8-.8 0-.4-.3-.8-.8-.8h-14.6c-.4.1-.8.4-.8.8zM-381.7 318.7h-4.7c-.4 0-.8.3-.8.8 0 .4.3.8.8.8h4.7c.4 0 .8-.3.8-.8-.1-.5-.4-.8-.8-.8zM-386.4 315.2h10.2c.4 0 .8-.3.8-.8 0-.4-.3-.8-.8-.8h-10.2c-.4 0-.8.3-.8.8s.4.8.8.8zM-372.7 314.4c0 .4.3.8.8.8h3.3c.4 0 .8-.3.8-.8 0-.4-.3-.8-.8-.8h-3.3c-.4.1-.8.4-.8.8z"/><path fill="#21A9D2" d="M-296.4 232.8c.3 0 .6-.1.7-.4l2-3.4 3.9-.4c.3 0 .5-.2.6-.5.1-.3.1-.6-.1-.8l-2.6-2.9.9-3.9c.1-.3 0-.6-.3-.7-.2-.2-.5-.2-.8-.1l-3.6 1.6-3.4-2c-.2-.1-.6-.1-.8 0-.2.2-.4.4-.3.7l.4 3.9-3 2.6c-.2.2-.3.5-.2.8.1.3.3.5.6.5l3.9.8 1.6 3.6c0 .4.2.6.5.6zm-1.5-5.4l-2.8-.6 2.1-1.9c.2-.2.3-.4.3-.6l-.3-2.8 2.4 1.5c.2.1.5.1.7 0l2.6-1.1-.6 2.8c-.1.2 0 .5.2.7l1.9 2.1-2.8.3c-.2 0-.5.2-.6.4l-1.4 2.5-1.1-2.6c-.2-.5-.4-.7-.6-.7zM-310.3 241.1c-1.5 2.6-2.4 5.2-2.8 7.8-.1.4.2.8.6.9h.1c.4 0 .7-.3.7-.6.4-2.4 1.3-4.8 2.7-7.3.2-.4.1-.8-.3-1-.4-.3-.8-.2-1 .2zM-307.8 237.2c-.3.3-.2.8.1 1.1.1.1.3.2.5.2s.4-.1.6-.3c2.7-3.5 5.4-5.6 5.4-5.7.3-.3.4-.7.1-1.1-.3-.3-.7-.4-1.1-.1 0 .1-2.8 2.3-5.6 5.9zM-405.6 226l3.9.3c.3 0 .6-.1.7-.4.1-.2.1-.6 0-.8l-2-3.3 1.5-3.7c.1-.3.1-.6-.1-.8-.2-.2-.5-.3-.8-.2l-3.8 1-3-2.5c-.2-.2-.5-.2-.8-.1s-.4.4-.5.6l-.3 3.9-3.4 2.1c-.2.2-.4.4-.4.7s.2.5.5.6l3.7 1.4 1 3.8c.1.3.3.5.6.6h.2c.2 0 .4-.1.6-.3l2.4-2.9zm-3.4-1.8c-.1-.2-.2-.4-.5-.5l-2.7-1 2.4-1.5c.2-.1.3-.4.4-.6l.2-2.8 2.2 1.7c.2.2.4.2.7.2l2.8-.7-1.1 2.6c-.1.2-.1.5.1.7l1.5 2.4-2.8-.2c-.2 0-.5.1-.6.3l-1.8 2.2-.8-2.8zM-399.2 241.4c.4 1.9.7 3.7.7 5.4 0 .8 0 1.5-.1 2.3-.1.4.2.8.7.8h.1c.4 0 .7-.3.7-.7.1-.8.1-1.6.1-2.5 0-1.8-.2-3.8-.7-5.8-.1-.4-.5-.7-.9-.6-.4.3-.7.7-.6 1.1zM-404 229.2c-.3.2-.4.7-.2 1.1 0 0 2 2.8 3.6 6.9.1.3.4.5.7.5.1 0 .2 0 .3-.1.4-.2.6-.6.4-1-1.7-4.3-3.7-7.2-3.8-7.3-.2-.3-.7-.3-1-.1z"/><path d="M-300.1 257.7c-.1-.3-.4-.4-.7-.4h-24.9c-.2 0-.5.1-.6.3l-5.3 7.4h-10.3l-5.1-7.2c1.3-3.6 2.8-7.1 4.7-10.3.2-.3.3-.5.5-.9 1.9-3.3 2.8-7.1 2.6-11-.5-10.2-8.6-18.3-18.7-19-5.6-.4-11 1.5-15.1 5.4-4.1 3.8-6.4 9.1-6.4 14.7 0 3.1.7 6.1 2.1 8.9 0 0 0 .1.1.1.5.8 1.1 1.7 1.6 2.6v.1c1.6 2.8 2.9 5.8 4 8.9h-32.3c-.3 0-.5.2-.7.4-.1.3-.1.6.1.8l11 15.2v50.7c0 2.3 1.9 4.1 4.1 4.1h74.1c2.3 0 4.1-1.9 4.1-4.1v-50.7l10.9-15.2c.3-.2.3-.5.2-.8zm-74.3-10.1c-.6-.9-1.1-1.8-1.6-2.6-1.3-2.6-1.9-5.3-1.9-8.2 0-5.1 2.2-10.1 5.9-13.6 3.8-3.6 8.8-5.3 14-5 9.4.6 16.8 8.2 17.3 17.6.2 3.6-.6 7.1-2.3 10.1l-.1.1c-.2.3-.3.5-.5.8-1.9 3.3-3.5 6.8-4.8 10.5h-21.7c-1.2-3.4-2.6-6.6-4.3-9.7zm-18 25.1l-10-13.9h54.2l10 13.9h-54.2zm54.9 54.3h-51.9c-1.5 0-2.6-1.2-2.6-2.6v-50.2h54.5V327zm-3.3-60.5h8.1l-4 5.6-4.1-5.6zm28.1 57.9c0 1.5-1.2 2.6-2.6 2.6H-336v-52.8h23.4v50.2h-.1zm.4-51.7h-23l10-13.9h23l-10 13.9z"/><path d="M-388.1 304.6c.4 0 .8-.3.8-.8v-23.7c0-.6.5-1.1 1.1-1.1h15.7c.4 0 .8-.3.8-.8 0-.4-.3-.8-.8-.8h-15.7c-1.5 0-2.6 1.2-2.6 2.6v23.7c-.1.5.3.9.7.9zM-342.3 321.2c.4 0 .8-.3.8-.8v-24c0-.4-.3-.8-.8-.8-.4 0-.8.3-.8.8v24c.1.5.4.8.8.8zM-347.8 321.2c.4 0 .8-.3.8-.8v-12c0-.4-.3-.8-.8-.8-.4 0-.8.3-.8.8v12c0 .5.4.8.8.8z"/></svg>