<svg xmlns="http://www.w3.org/2000/svg" width="102" height="102" viewBox="-429 231.1 100.3 100.8"><path fill="#EEF9FC" d="M-328.7 331.9l-100.8-33.6 67.2-67.2 33.6 100.8z"/><path fill="#333" d="M-336.7 255.2c.3 0 .5-.2.5-.5v-8.8c0-.3-.2-.6-.5-.6s-.6.2-.6.5v8.8c0 .4.3.6.6.6zm0 5.7c.3 0 .5-.2.5-.5v-2.8c0-.3-.2-.6-.5-.6s-.6.2-.6.5v2.8c0 .3.3.6.6.6zm-85.9 27.7c-.3 0-.5.2-.5.5v8.8c0 .3.2.6.5.6s.6-.2.6-.5v-8.8c0-.4-.2-.6-.6-.6.1 0 .1 0 0 0zm0 11.5c-.3 0-.5.2-.5.5v2.8c0 .3.2.6.5.6s.6-.2.6-.5v-2.8c0-.2-.2-.6-.6-.6.1 0 .1 0 0 0zm73.6-63.9c.2.2.6.2.8 0 .2-.2.2-.5 0-.7l-1.3-1.3c-.2-.2-.5-.2-.8 0-.2.2-.2.5 0 .8l1.3 1.2zm4.2 4.3c.2.2.6.2.8 0 .2-.2.2-.5 0-.7l-1.3-1.3c-.2-.2-.6-.2-.8 0-.2.2-.2.6 0 .8l1.3 1.2zm-5.2.2c.1 0 .3-.1.4-.2l1.3-1.3c.2-.2.2-.6 0-.8s-.6-.2-.8 0l-1.3 1.3c-.2.2-.2.5 0 .7.2.2.3.2.4.3zm4.3-4.3c.1 0 .3-.1.4-.2l1.3-1.3c.2-.2.2-.6 0-.8s-.6-.2-.8 0l-1.3 1.3c-.2.2-.2.5 0 .7.2.3.3.3.4.3zm-78.7 86.5c-.2-.2-.5-.2-.7-.1l-.1.1c-.2.2-.2.5 0 .7l1.3 1.3c.2.2.6.2.8 0 .2-.2.2-.5 0-.7l-1.3-1.3zm4.3 4.2c-.2-.2-.6-.2-.8 0-.2.2-.2.6 0 .8l1.3 1.3c.2.2.6.2.8 0 .2-.2.2-.5 0-.7l-1.3-1.4zm-3.8 0l-1.3 1.3c-.2.2-.2.5 0 .7.2.2.6.2.8 0l1.3-1.3c.2-.2.2-.6 0-.8-.2 0-.6 0-.8.1zm4.3-4.2l-1.3 1.3c-.2.2-.2.5 0 .7.2.2.6.2.8 0l1.3-1.3c.2-.2.2-.5 0-.7-.2-.3-.5-.3-.8 0 .1-.1 0 0 0 0zm-2.6-61.9c0-1.5-1.3-2.7-2.8-2.7s-2.7 1.3-2.7 2.8 1.2 2.7 2.7 2.7 2.7-1.2 2.7-2.7l.1-.1zm-4.4 0c0-.9.8-1.6 1.7-1.6.9 0 1.6.8 1.6 1.7s-.8 1.6-1.6 1.6c-1-.1-1.8-.7-1.7-1.7zm67 64.6c-1.5 0-2.8 1.2-2.8 2.7s1.2 2.8 2.7 2.8 2.8-1.2 2.8-2.7c0-1.6-1.2-2.8-2.7-2.8zm0 4.4c-.9 0-1.7-.7-1.7-1.6s.7-1.7 1.6-1.7 1.7.7 1.7 1.6c0 1-.7 1.7-1.6 1.7zm-51-93.9c0-.3-.2-.5-.5-.6h-10.5c-.3 0-.5.2-.5.6 0 .3.2.5.5.5h10.4c.3 0 .5-.2.5-.4.1 0 .1-.1.1-.1zm-13.8 0c0-.3-.2-.5-.5-.6h-3.5c-.3 0-.5.2-.5.6 0 .3.2.5.5.5h3.4c.2.1.5-.1.6-.5zm-4-3h7.3c.3 0 .6-.3.6-.6s-.2-.6-.6-.6h-7.3c-.3 0-.5.2-.5.4v.1c-.1.4.1.7.5.7-.1 0-.1 0 0 0zm10.4 0h2.4c.3 0 .6-.3.6-.6s-.2-.6-.6-.6h-2.4c-.3 0-.6.2-.6.6 0 .3.3.6.6.6zm81.9 80.9c0-.3-.2-.5-.5-.6h-10.5c-.3 0-.6.3-.6.6s.2.6.6.6h10.4c.3 0 .5-.2.6-.5v-.1zm2.3 0c0 .3.2.5.5.6h3.4c.3 0 .6-.3.6-.6s-.2-.6-.6-.6h-3.4c-.2.1-.5.2-.5.6zm4 3.1h-7.3c-.3 0-.6.3-.6.6s.2.6.6.6h7.3c.3 0 .6-.2.6-.6s-.3-.6-.6-.6zm-10.4 0h-2.4c-.3 0-.6.3-.6.6s.2.6.6.6h2.4c.3 0 .5-.2.5-.5s-.2-.5-.4-.6l-.1-.1zm-69.6-10.6v4.8c0 .3.2.5.5.6h49.6c.3 0 .5-.2.6-.5v-4.8c0-.3-.2-.5-.5-.6h-49.5c-.3-.1-.6.1-.7.5.1 0 0 0 0 0zm7.7.6l-2.4 3.7h-2.4l2.4-3.7h2.4zm3.7 0l-2.4 3.7h-2.4l2.4-3.7h2.4zm3.7 0l-2.4 3.7h-2.4l2.4-3.7h2.4zm3.8 0l-2.4 3.7h-2.4l2.4-3.7h2.4zm3.8 0l-2.4 3.7h-2.4l2.4-3.7h2.4zm3.7 0l-2.4 3.7h-2.4l2.4-3.7h2.4zm23.3 3.5h-24.4l2.4-3.7h21.8l.2 3.7zm-48.5-3.5h2.7l-2.4 3.7h-.2v-3.7h-.1zm.8-53.5h26.2c.3 0 .6-.3.6-.6s-.2-.6-.6-.6h-26.2c-.3 0-.6.3-.5.6 0 .4.2.6.5.6zm0 32h26.2c.3 0 .6-.2.6-.5s-.2-.6-.5-.6h-26.2c-.3 0-.5.2-.5.5-.1.4.1.6.4.6zm0-8h33.4c.3 0 .6-.3.6-.6s-.2-.6-.6-.6h-33.4c-.3 0-.5.2-.6.5.1.5.3.7.6.7zm0-8h42.8c.3 0 .6-.3.6-.6s-.2-.6-.6-.6h-42.8c-.3 0-.6.3-.5.6 0 .4.2.6.5.6zm0-8.1h33.9c.3 0 .5-.2.5-.6 0-.3-.2-.5-.5-.5h-33.9c-.3 0-.5.3-.5.6 0 .4.2.5.5.5zm60.7 7.6c.1.1.1.2.2.2l2.1 2.8c.1.1.3.2.5.2.1 0 .3 0 .3-.2.2-.2.3-.5.1-.7v-.1l-1.2-1.6c7.7 1.9 12.4 9.6 10.5 17.2-.2.7-.4 1.4-.7 2.1-.1.3 0 .6.3.8.1 0 .2.1.2.1.2 0 .5-.2.5-.4.8-1.9 1.2-3.9 1.2-5.9 0-7.1-4.8-13.2-11.6-15l1.5-.7c.3-.2.4-.5.2-.8-.2-.3-.5-.4-.8-.2l-3.1 1.5c-.1 0-.1.1-.2.1v.1c0 .1-.1.1-.1.2v.1c.2.1.1.2.1.2zm9.7 25.5l-.2 1.7c0 .3.2.6.5.6h.1c.3 0 .5-.2.5-.5l.2-3.5v-.3c0-.1-.1-.1-.1-.2v-.1l-.2-.2h-.2l-3.4.5c-.3 0-.5.3-.5.6s.3.5.6.5l2-.2c-4.5 4.8-11.7 5.9-17.4 2.5-1.6-.9-3-2.2-4.2-3.7-.2-.2-.5-.3-.8-.1s-.3.5-.1.8c1.2 1.6 2.8 2.9 4.5 4 .5.2.9.5 1.4.7v21.7c0 .8-.7 1.5-1.5 1.5h-56.2c-.8 0-1.5-.7-1.5-1.5v-75.7c0-.9.7-1.6 1.6-1.6h46.9v7.7c0 1.7 1.4 3.1 3.1 3.2h7.5v16.4c0 .1 0 .2.1.2-.5.2-1 .5-1.5.7-6.1 3.6-9 10.8-7.1 17.6l-1.4-.9c-.3-.2-.6-.1-.8.2-.2.3-.1.6.2.8l2.8 1.9c.1.1.2.2.4.2h.2l.2-.2.1-.1.1-.1 1.3-3.2c.2-.3 0-.7-.3-.8-.3-.2-.7 0-.8.3v.1l-.8 1.8c-1.9-6.3.8-13.1 6.5-16.4 1.6-1 3.4-1.6 5.3-1.8.3-.1.5-.3.5-.7-.1-.3-.3-.5-.6-.5-1.1.1-2.1.4-3.1.8v-16.8c0-.1-.1-.1-.1-.2l-10.8-10.9c0-.1-.1-.1-.2-.1h-47.8c-1.5 0-2.7 1.2-2.7 2.6v75.8c0 1.5 1.2 2.7 2.6 2.7H-356.2c1.5 0 2.7-1.2 2.7-2.6v-21.3c1.6.6 3.4.9 5.1.9 4.1-.1 8.1-1.8 11-4.8zm-25-42.6c-1.1 0-2-.9-2-1.9v-6.9l8.8 8.8h-6.8z"/></svg>