<svg xmlns="http://www.w3.org/2000/svg" width="96" height="100" viewBox="-431 233 96 99.3"><circle fill="#EEF9FC" cx="-383.1" cy="282.8" r="48"/><path fill="#333" d="M-395.5 245.3h-1.4v-1.4c0-.3-.2-.6-.6-.6-.3 0-.5.2-.5.6v1.4h-1.4c-.3 0-.5.2-.5.5s.2.5.5.6h1.4v1.4c0 .3.2.6.5.6s.6-.2.6-.6v-1.3h1.4c.3 0 .5-.2.5-.5.1-.4-.1-.6-.5-.7zm-.2 7.1c-.2-.2-.5-.2-.7-.1l-.1.1-1 1-1-1c-.2-.2-.5-.2-.7-.1l-.1.1c-.2.2-.2.5 0 .7l1 1-1 1c-.2.2-.2.5 0 .7.2.2.6.2.8 0l1-1 1 1c.2.2.6.2.8 0 .2-.2.2-.5 0-.7l-1-1 1-1c.3-.1.3-.4 0-.7.1 0 0 0 0 0zm9.1-7.1h-4c-.3 0-.5.2-.5.5s.2.5.5.6h4c.3 0 .5-.2.5-.5.1-.3-.2-.6-.5-.6zm-1.5 10.4c-.2-.2-.4-.2-.6-.2-.1 0-.2.1-.2.2l-.2.2c0 .1-.1.2-.1.2 0 .1.1.3.2.4l.2.2h.2c.1 0 .3-.1.4-.2.1-.1.2-.3.2-.4 0-.1 0-.2-.1-.2v-.2zm1.5-2h-4c-.3 0-.5.2-.5.5s.2.5.5.6h4c.3 0 .5-.2.5-.5.1-.4-.1-.6-.5-.6zm-1.9-.8c.1 0 .3-.1.4-.2.1-.1.2-.3.2-.4 0-.1-.1-.3-.2-.4-.2-.2-.4-.2-.6-.2-.1 0-.2.1-.2.2-.1.1-.2.2-.2.4 0 .1.1.3.2.4.1 0 .1.1.2.2h.2zm-12.7-11.9h16.8c.3 0 .5-.2.5-.5v-4.4c0-.3-.2-.5-.5-.6h-16.8c-.3 0-.5.2-.5.5v4.4c-.1.4.1.6.5.6-.1.1 0 .1 0 0zm.6-4.4h15.6v3.2h-15.6v-3.2zm62.7 40.4h-10.5v-3.9c0-.8-.6-1.4-1.4-1.4h-1.8V247c0-2.6-2.1-4.8-4.8-4.8h-24.7v-7.3c0-1.2-1-2.2-2.2-2.2h-19.1c-1.2 0-2.2 1-2.2 2.2v7.3h-6.4c-2.6 0-4.8 2.2-4.8 4.8v38.3l-2-2.1-2.1-2.1-2.6-2.6c-.7-.7-1.7-1.1-2.7-1.1-1 0-2 .4-2.7 1.1-1.5 1.5-1.5 3.9 0 5.4l2.6 2.6 9.6 9.7v23.1c0 2.6 2.1 4.8 4.8 4.8h45.2c.1 0 .2-.1.2-.2l13.7-13.8c.1 0 .1-.1.1-.2v-5h13.7c1.5 0 2.7-1.2 2.7-2.8v-22.4c.1-1.4-1-2.7-2.5-2.7h-.1zm-11.7-3.9v3.9h-12.7v-3.9c0-.2.1-.3.3-.3h12.1c.2 0 .3.2.3.3zm-53.8-38.2c0-.6.5-1.1 1-1.1H-383.2c.6.1 1 .5 1.1 1.1v23.3c0 .6-.5 1.1-1.1 1.1h-19.1c-.6 0-1.1-.5-1.1-1V234.9zm7.4 72.4l2.2 5.7-5.6-2.2 3.4-3.5zm-4.4 2.7l-21.6-21.7 3.8-3.8 21.6 21.7-3.8 3.8zm-23.8-23.7l3.8-3.8 1.3 1.3-3.8 3.8-1.3-1.3zm-3-7c.5-.5 1.2-.8 1.9-.8s1.4.3 1.9.8l2.2 2.2-3.8 3.8-2.2-2.2c-1-1-1-2.6 0-3.8zm61.8 43v-8.7c0-1.7 1.4-3.1 3.1-3.2h8.6l-11.7 11.9zm12.6-17v4h-9.4c-2.4 0-4.3 2-4.3 4.3v9.5H-411c-2 0-3.6-1.6-3.6-3.6v-21.9l13.7 13.8.1.1.2.2 7.5 2.8h.2c.1 0 .3-.1.4-.2.2-.2.2-.4.2-.6l-2.8-7.5c-.1-.1-.1-.2-.2-.3 0 0 0-.1-.1-.1l-19.1-19.2V247c0-2 1.6-3.6 3.6-3.6h6.4v14.8c0 1.2 1 2.2 2.2 2.2h19.1c1.2 0 2.2-1 2.2-2.2v-14.8h24.6c2 0 3.6 1.6 3.6 3.6v24.6h-9.2c-.8 0-1.4.6-1.4 1.4v3.9h-10.5c-1.5 0-2.7 1.2-2.7 2.8v22.6c0 1.5 1.2 2.7 2.7 2.8h21.3c-.2 0-.3 0-.2.2zm16.4-3c0 .9-.7 1.6-1.6 1.6h-36.1c-.9 0-1.6-.7-1.6-1.6v-22.6c0-.9.7-1.6 1.6-1.6h36c.9 0 1.6.7 1.6 1.6l.1 22.6zm-30.3-15.5c-.3 0-.5.2-.5.5v7.3c0 .3.2.6.6.6.3 0 .5-.2.5-.6v-7.3c.1-.2-.1-.5-.4-.6 0 .1-.1.1-.2.1zm7.2-2.5c-.3 0-.5.2-.5.5V297c0 .3.2.6.5.6s.6-.2.6-.6v-12.1c-.1-.3-.3-.6-.6-.6zm7 0c-.3 0-.5.2-.5.5V297c0 .3.2.6.5.6s.6-.2.6-.6v-12.1c0-.3-.2-.6-.6-.6zm7.1 2.5c-.3 0-.5.2-.5.5v7.3c0 .3.2.6.5.6s.6-.2.6-.6v-7.3c0-.3-.2-.5-.4-.6-.1.1-.2.1-.2.1zm-65 10.2c.2.2.6.2.8 0 .2-.2.2-.5 0-.7l-1.6-1.7c-.2-.2-.5-.2-.7-.1l-.1.1c-.2.2-.2.5 0 .7l1.6 1.7zm-6-6l1.6 1.7c.2.2.6.2.8 0 .2-.2.2-.5 0-.7l-1.6-1.7c-.2-.2-.6-.2-.8 0s-.2.5 0 .7zm14.5 14.6c.2.2.6.2.8 0 .2-.2.2-.5 0-.7l-1.4-1.4c-.2-.2-.5-.2-.7 0-.2.2-.2.6 0 .8l1.3 1.3zm-4.1-4.1c.2.2.6.2.8 0 .2-.2.2-.5 0-.7l-1.6-1.7c-.2-.2-.6-.2-.8 0s-.2.6 0 .8l1.6 1.6zm-2.2-34.4h42.5c.3 0 .6-.3.6-.6s-.2-.6-.6-.6h-42.5c-.3 0-.6.3-.6.6 0 .5.3.6.6.6zm0 6.2h36.1c.3 0 .5-.2.5-.5s-.2-.5-.5-.6h-36.1c-.3 0-.5.2-.5.5-.1.3.2.6.5.6zm26.8 5h-26.8c-.3 0-.5.2-.5.5s.2.5.5.6h26.8c.3 0 .5-.2.5-.5.1-.4-.2-.6-.5-.6zm-2.5 6h-24.3c-.3 0-.5.2-.5.5s.2.5.5.6h24.3c.3 0 .5-.2.5-.5.1-.4-.2-.6-.5-.6zm-36.6-24.5c.3 0 .5-.2.5-.5V252c0-.3-.2-.6-.6-.6-.3 0-.5.2-.5.6v7.3c0 .3.3.5.6.5zm0 4.7c.3 0 .5-.2.5-.5v-2.4c0-.3-.2-.6-.5-.6s-.6.2-.6.6v2.4c0 .3.3.5.6.5zm81.5-5.7c0-.3-.2-.6-.5-.6s-.6.2-.6.6v7.3c0 .3.2.6.6.6.3 0 .5-.2.5-.6v-7.3zm-.5 9c-.3 0-.5.2-.5.5v2.4c0 .3.2.6.5.6s.6-.2.6-.6v-2.4c-.1-.2-.3-.3-.6-.5zm-85.1 38.7c-.2-.2-.6-.2-.8 0-.2.2-.2.6 0 .8l1.1 1.1c.2.2.6.2.8 0 .2-.2.2-.5 0-.7l-1.1-1.2zm3.5 3.6c-.2-.2-.6-.2-.8 0s-.2.6 0 .8l1.1 1.1c.2.2.6.2.8 0 .2-.2.2-.5 0-.7l-1.1-1.2zm-3.2 0l-1.1 1.1c-.2.2-.2.5-.1.7l.1.1c.2.2.6.2.8 0l1.1-1.1c.2-.2.3-.6.1-.8-.2-.1-.6-.3-.9 0 0-.1 0 0 0 0zm3.5-3.6l-1.1 1.1c-.2.2-.2.5 0 .7.2.2.6.2.8 0l1.1-1.1c.2-.2.2-.6-.1-.8-.1.1-.5.1-.7.1zm45 20.6c-.2-.2-.5-.2-.7 0-.2.2-.2.6 0 .8l1.1 1.1c.2.2.6.2.8 0 .2-.2.2-.5 0-.7l-1.2-1.2zm3.6 3.5c-.2-.2-.5-.2-.7-.1l-.1.1c-.2.2-.2.5 0 .7l1.1 1.1c.2.2.6.2.8 0 .2-.2.2-.5 0-.7l-1.1-1.1zm-3.3 0l-1.1 1.1c-.2.2-.2.5 0 .7.2.2.6.2.8 0l1.1-1.1c.2-.2.2-.5 0-.7-.3-.1-.6-.1-.8 0zm3.5-3.5l-1.1 1.1c-.2.2-.2.5-.1.7l.1.1c.2.2.6.2.8 0l1.1-1.1c.2-.2.2-.6-.1-.8-.2-.1-.5-.1-.7 0zm-43.2-87.9c1.4 0 2.5-1.1 2.5-2.5s-1.1-2.5-2.5-2.5-2.5 1.1-2.5 2.5c0 1.3 1.1 2.5 2.5 2.5zm0-4c.7 0 1.3.6 1.3 1.3s-.6 1.3-1.3 1.3c-.7 0-1.3-.6-1.3-1.3 0-.7.6-1.3 1.3-1.3zm7 92.1c-1.4 0-2.5 1.1-2.5 2.5s1.1 2.5 2.5 2.5 2.5-1.1 2.5-2.5c0-1.3-1-2.5-2.3-2.5h-.2zm0 4c-.7 0-1.3-.6-1.3-1.3 0-.7.6-1.3 1.3-1.3.7 0 1.3.6 1.3 1.3.1.7-.4 1.3-1.1 1.3h-.2zm65.5-18.8c-1.6 0-2.8 1.3-2.8 2.8 0 1.6 1.3 2.8 2.8 2.8 1.6 0 2.8-1.3 2.8-2.8 0-1.5-1.3-2.8-2.8-2.8zm0 4.5c-.9 0-1.7-.7-1.7-1.6 0-.9.7-1.7 1.6-1.7s1.7.7 1.7 1.6c0 1-.7 1.7-1.6 1.7zm-5.5-78.9c0 .3.2.5.5.6h8.6c.3 0 .5-.2.5-.5s-.2-.5-.5-.6h-8.6c-.3 0-.5.2-.5.4v.1zm-5.1.6h2.8c.3 0 .5-.2.5-.5s-.2-.5-.5-.6h-2.8c-.3 0-.5.2-.5.5-.1.3.2.6.5.6zm0-3h6c.3 0 .5-.2.5-.5s-.2-.5-.5-.6h-6c-.3 0-.5.2-.5.5-.1.3.1.6.5.6zm8.6 0h2c.3 0 .5-.2.5-.5s-.2-.5-.5-.6h-2c-.3 0-.5.2-.5.5-.1.3.2.6.5.6zm7.6 93.8h-8.6c-.3 0-.5.2-.5.5s.2.5.5.6h8.6c.3 0 .5-.2.5-.5s-.2-.5-.4-.5c0-.1-.1-.1-.1-.1zm-11.4 0h-2.8c-.3 0-.5.2-.5.5s.2.5.5.6h2.8c.3 0 .5-.2.5-.5s-.2-.5-.5-.6zm-3.4-2.2c0 .3.2.5.5.6h6c.3 0 .5-.2.5-.5s-.2-.5-.5-.6h-6c-.3 0-.5.1-.5.4v.1zm9.2-.8c-.3 0-.6.3-.6.6s.2.6.6.6h2c.3 0 .6-.3.6-.6s-.2-.6-.6-.6h-2z"/></svg>